{"title":"\nWar For The Planet Of The Apes 2017 HDRip XviD-PsiX","magnet":"magnet:?xt=urn:btih:f1f0c1708419b0de142efa7224969d97cb137552&dn=War+For+The+Planet+Of+The+Apes+2017+HDRip+XviD-PsiX&tr=udp%3A%2F%2Ftracker.leechers-paradise.org%3A6969&tr=udp%3A%2F%2Fzer0day.ch%3A1337&tr=udp%3A%2F%2Fopen.demonii.com%3A1337&tr=udp%3A%2F%2Ftracker.coppersurfer.tk%3A6969&tr=udp%3A%2F%2Fexodus.desync.com%3A6969","uploader":"hollywood2008","categoryP":"video","categoryS":"movies","size":"732290122","seeders":"0","leechers":"219","description":"War For The Planet Of The Apes 2017 HDRip XviD-PsiX\r\n <a href=\"\nhttp://www.imdb.com/title/tt3450958/\" rel=\"nofollow\" target=\"_NEW\">\nhttp://www.imdb.com/title/tt3450958/</a>\r\n\r\nFormat                      : AVI\r\nFile size                   : 698 MiB\r\nDuration                    : 2 h 18 min\r\nCopyright                   : PsiX\r\n\r\nVideo\r\nFormat settings, Matrix     : Default (H.263)\r\nCodec ID                    : XVID\r\nCodec ID/Hint               : XviD\r\nDuration                    : 2 h 18 min\r\nBit rate                    : 596 kb/s\r\nWidth                       : 640 pixels\r\nHeight                      : 272 pixels\r\nDisplay aspect ratio        : 2.35:1\r\nFrame rate                  : 30.000 FPS\r\nStream size                 : 591 MiB (85%)\r\n\r\nAudio\r\nID                          : 1\r\nFormat                      : MPEG Audio\r\nCodec ID                    : 55\r\nCodec ID/Hint               : MP3\r\nDuration                    : 2 h 18 min\r\nBit rate                    : 96.0 kb/s\r\nChannel(s)                  : 2 channels\r\nSampling rate               : 22.05 kHz\r\nStream size                 : 95.3 MiB (14%)\r\n\r\n\r\nSource....720p.HDRip.KORSUB.x264-P2P\r\n\r\nNOTES.....ok...cropped KORSUB...\r\n <a href=\"\nhttps://i.imgur.com/2S83W82.jpg\" rel=\"nofollow\" target=\"_NEW\">\nhttps://i.imgur.com/2S83W82.jpg</a> <a href=\"\nhttps://i.imgur.com/kdL3Enw.jpg\" rel=\"nofollow\" target=\"_NEW\">\nhttps://i.imgur.com/kdL3Enw.jpg</a>","last_updated":"2017-10-02T12:12:17.604Z","parsed":{"xt":"urn:btih:f1f0c1708419b0de142efa7224969d97cb137552","dn":"War For The Planet Of The Apes 2017 HDRip XviD-PsiX","tr":["udp://exodus.desync.com:6969","udp://open.demonii.com:1337","udp://tracker.coppersurfer.tk:6969","udp://tracker.leechers-paradise.org:6969","udp://zer0day.ch:1337"],"infoHash":"f1f0c1708419b0de142efa7224969d97cb137552","infoHashBuffer":{"type":"Buffer","data":[241,240,193,112,132,25,176,222,20,46,250,114,36,150,157,151,203,19,117,82]},"name":"War For The Planet Of The Apes 2017 HDRip XviD-PsiX","announce":["udp://exodus.desync.com:6969","udp://open.demonii.com:1337","udp://tracker.coppersurfer.tk:6969","udp://tracker.leechers-paradise.org:6969","udp://zer0day.ch:1337"],"urlList":[]}}